<svg version="1.1" xmlns="http://www.w3.org/2000/svg" xmlns:xlink="http://www.w3.org/1999/xlink" x="0px" y="0px" viewBox="0 0 32 32" width="32px" height="32px" enable-background="new 0 0 32 32" preserveAspectRatio="none">
<path fill="#FFFFFF" d="M28.204,8.43c-0.898,0.398-1.863,0.667-2.876,0.789c1.034-0.62,1.828-1.601,2.202-2.77
	c-0.968,0.574-2.039,0.991-3.18,1.215c-0.913-0.973-2.215-1.581-3.655-1.581c-2.766,0-5.008,2.242-5.008,5.007
	c0,0.393,0.044,0.775,0.13,1.141c-4.162-0.209-7.852-2.202-10.321-5.232c-0.431,0.74-0.678,1.6-0.678,2.517
	c0,1.737,0.884,3.27,2.228,4.168c-0.821-0.026-1.593-0.251-2.268-0.626c0,0.021,0,0.042,0,0.063c0,2.426,1.726,4.45,4.017,4.91
	c-0.42,0.114-0.863,0.176-1.319,0.176c-0.323,0-0.636-0.031-0.942-0.09c0.637,1.989,2.487,3.437,4.678,3.478
	c-1.714,1.343-3.873,2.144-6.219,2.144c-0.404,0-0.803-0.024-1.195-0.07c2.216,1.421,4.848,2.25,7.676,2.25
	c9.211,0,14.247-7.63,14.247-14.248c0-0.217-0.005-0.433-0.014-0.648C26.684,10.316,27.533,9.434,28.204,8.43z"/>
</svg>